<svg width="146" height="176" viewBox="0 0 146 176" fill="none" xmlns="http://www.w3.org/2000/svg">
<path d="M79.8545 176C113.112 176 140.073 146.035 140.073 109.07C140.073 72.1062 113.112 42.1408 79.8545 42.1408C46.5969 42.1408 19.6364 72.1062 19.6364 109.07C19.6364 146.035 46.5969 176 79.8545 176Z" fill="#A0616A"/>
<path d="M82.256 24.8171L64.7516 14.8732L68.2525 21.5025L54.2488 18.1879L57.7497 21.5025L40.2453 18.1879L47.2471 24.8171C47.2471 24.8171 19.2399 24.8171 15.739 51.3341L7.39815 58.2535L5.23636 64.5925V74.5364L12.2381 81.1657V91.1095L18.3273 122.704L22.2545 128.901L24.8727 81.1657C24.8727 81.1657 57.7498 91.1096 71.7534 64.5927C71.7534 64.5927 75.2543 74.5365 92.7588 71.2219L129.6 79.3239L137.455 128.901C137.455 128.901 147.023 108.577 141.771 91.1095C146.618 83.0423 141.771 64.5927 141.771 64.5927C141.771 64.5927 131.269 54.6488 131.269 48.0195C131.269 41.3903 120.766 34.7611 113.764 34.7611C106.762 34.7611 89.2579 21.5026 89.2579 21.5026L82.256 24.8171Z" fill="#2F2E41"/>
<path d="M10.0016 82.0112L4.36953 75.6123C1.55345 72.4128 0 68.2967 0 64.0344V63.4315C0 61.641 0.251493 59.8593 0.74711 58.1387L2.93989 50.5263C6.15177 39.3761 12.4283 29.3509 21.0556 21.5911L22.8281 19.9968C30.193 13.3724 39.0379 8.60917 48.6221 6.10592L55.4318 4.32736C66.2743 1.49547 77.6816 1.65517 88.4406 4.78948L90.9053 5.5075C100.835 8.40017 109.883 13.7308 117.226 21.014L128.338 32.0362C131.784 35.4537 134.782 39.2944 137.26 43.4664C142.529 52.334 145.309 62.4578 145.309 72.7723V78.2773C145.309 84.9787 137.423 88.5677 132.37 84.1661L128.91 81.1519C118.724 72.28 104.746 69.1553 91.7522 72.846L90.5852 73.1774C87.8085 73.9661 84.9358 74.3662 82.0492 74.3662C78.8595 74.3662 75.6885 74.8547 72.6467 75.8147L68.0527 77.2645C63.7156 78.6333 59.241 79.5207 54.7097 79.9107L19.4408 82.9464C18.7044 83.0098 17.9852 83.2042 17.3171 83.5204C14.8149 84.705 11.8307 84.0893 10.0016 82.0112Z" fill="#111111"/>
<mask id="mask0" mask-type="alpha" maskUnits="userSpaceOnUse" x="1" y="63" width="138" height="32">
<path d="M24.027 73.5965L1.30909 89.2394L44.5091 94.1972L138.764 88L124.89 77.3275C120.25 73.7578 114.788 71.4092 109.005 70.4966L68.8359 64.158C64.8659 63.5315 60.8176 63.5935 56.8686 64.3413L37.3647 68.0345C32.5803 68.9405 28.0376 70.8349 24.027 73.5965Z" fill="#232323"/>
</mask>
<g mask="url(#mask0)">
<path d="M10.0436 82.0589L4.36953 75.6123C1.55345 72.4128 -2.38419e-07 68.2967 -2.38419e-07 64.0344V63.4315C-2.38419e-07 61.641 0.251493 59.8593 0.74711 58.1387L2.93989 50.5263C6.15177 39.3761 12.4283 29.3509 21.0556 21.5911L22.8281 19.9968C30.193 13.3724 39.0379 8.60917 48.6221 6.10592L55.4318 4.32736C66.2743 1.49547 77.6816 1.65517 88.4406 4.78948L90.9053 5.5075C100.835 8.40017 109.883 13.7308 117.226 21.014L128.338 32.0362C131.784 35.4537 134.782 39.2944 137.26 43.4664C142.529 52.334 145.309 62.4578 145.309 72.7723V78.2773C145.309 84.9787 137.423 88.5677 132.37 84.1661L128.794 81.051C118.681 72.242 104.801 69.1395 91.9 72.804L89.6237 73.4505C87.4856 74.0578 85.4456 74.9686 83.5661 76.155C80.2718 78.2343 76.508 79.4525 72.6202 79.6979L58.9091 80.5634L19.5062 82.9702C18.7274 83.0178 17.9649 83.2138 17.2597 83.5476C14.7915 84.7161 11.8478 84.1088 10.0436 82.0589Z" fill="#232323"/>
</g>
<path d="M62.3375 144.972L57.6 146.254C69.3444 151.813 82.8042 152.531 95.0731 148.251L100.8 146.254L89.7339 144.048C80.6528 142.238 71.276 142.554 62.3375 144.972Z" fill="white"/>
</svg>
